<?xml version="1.0" standalone="no"?>
<svg viewBox="0 0 200 200" xmlns="http://www.w3.org/2000/svg">
  <path fill="#FF0066" d="M46.7,-68.8C59.6,-64.3,68.4,-49.8,76.3,-34.3C84.2,-18.8,91.2,-2.4,89.4,13.2C87.7,28.7,77.2,43.3,64.5,53.5C51.9,63.7,37,69.5,22.8,70.4C8.6,71.4,-5,67.4,-20.5,65C-36,62.7,-53.4,62,-57.9,52.6C-62.4,43.1,-54,24.8,-47.9,12C-41.7,-0.8,-37.9,-8.2,-37.9,-21.1C-37.9,-34.1,-41.8,-52.6,-36.2,-60.4C-30.5,-68.1,-15.2,-65.1,0.8,-66.4C16.9,-67.7,33.8,-73.3,46.7,-68.8Z" transform="translate(100 100)" />
</svg>
