<?xml version="1.0" encoding="UTF-8"?>
<svg id="Layer_1" xmlns="http://www.w3.org/2000/svg" version="1.1" viewBox="0 0 12.6 10.8">
  <!-- Generator: Adobe Illustrator 29.5.1, SVG Export Plug-In . SVG Version: 2.1.0 Build 141)  -->
  <defs>
    <style>
      .st0 {
        fill: #349b91;
      }
    </style>
  </defs>
  <path class="st0" d="M8.5,4.6c-.5-2.3-1.7-3-1.9-3.3-.1-.2-.2-.4-.3-.6,0,.2,0,.3-.2.5-.3.2-1.8,1.5-1.9,4.1-.1,2.4,1.8,3.9,2,4.1h0c0,.4,0,.8.1,1.2h.2c0-.4.1-.8.2-1.3.2-.1.2-.2.3-.3,1-.9,1.5-2.2,1.5-3.5,0-.3,0-.7,0-.9ZM6.3,7.9s0-3.4.1-3.4c0,0,.2,4.4.2,4.4-.2,0-.3-.7-.3-1Z"/>
</svg>