<?xml version="1.0" encoding="UTF-8"?>
<svg id="Layer_1" data-name="Layer 1" xmlns="http://www.w3.org/2000/svg" viewBox="0 0 54 33">
  <defs>
    <style>
      .cls-1 {
        fill: #9c4a57;
        fill-rule: evenodd;
      }
    </style>
  </defs>
  <path class="cls-1" d="M27,0c-7.2,0-11.7,3.6-13.5,10.8,2.73-3.6,5.87-4.93,9.4-4,2.1.5,3.6,2,5.2,3.6,2.6,2.7,5.7,5.8,12.4,5.8,7.2,0,11.7-3.6,13.5-10.8-2.73,3.6-5.9,4.93-9.5,4-2-.5-3.5-2-5.1-3.6C36.8,3.1,33.7,0,27,0ZM13.5,16.2c-7.2,0-11.7,3.6-13.5,10.8,2.67-3.6,5.8-4.97,9.4-4.1,2.1.6,3.6,2.1,5.2,3.7,2.6,2.7,5.7,5.8,12.4,5.8,7.2,0,11.7-3.6,13.5-10.8-2.73,3.6-5.9,4.93-9.5,4-2-.5-3.5-2-5.1-3.6-2.6-2.7-5.7-5.8-12.4-5.8Z"/>
</svg>