<?xml version="1.0" encoding="UTF-8"?>
<svg id="Layer_1" xmlns="http://www.w3.org/2000/svg" version="1.1" viewBox="0 0 54 33">
  <!-- Generator: Adobe Illustrator 29.5.1, SVG Export Plug-In . SVG Version: 2.1.0 Build 141)  -->
  <defs>
    <style>
      .st0 {
        fill: #349b91;
        fill-rule: evenodd;
      }
    </style>
  </defs>
  <path class="st0" d="M27,0c-7.2,0-11.7,3.6-13.5,10.8,2.7-3.6,5.9-4.9,9.4-4,2.1.5,3.6,2,5.2,3.6,2.6,2.7,5.7,5.8,12.4,5.8s11.7-3.6,13.5-10.8c-2.7,3.6-5.9,4.9-9.5,4-2-.5-3.5-2-5.1-3.6-2.6-2.7-5.7-5.8-12.4-5.8ZM13.5,16.2c-7.2,0-11.7,3.6-13.5,10.8,2.7-3.6,5.8-5,9.4-4.1,2.1.6,3.6,2.1,5.2,3.7,2.6,2.7,5.7,5.8,12.4,5.8s11.7-3.6,13.5-10.8c-2.7,3.6-5.9,4.9-9.5,4s-3.5-2-5.1-3.6c-2.6-2.7-5.7-5.8-12.4-5.8Z"/>
</svg>