<svg version="1.2" xmlns="http://www.w3.org/2000/svg" viewBox="0 0 54 33" width="54" height="33">
	<title>Tailwind_CSS_Logo</title>
	<style>
		.s0 { fill: #e5e7eb } 
	</style>
	<path fill-rule="evenodd" class="s0" d="m27 0q-10.8 0-13.5 10.8 4.1-5.4 9.4-4c2.1 0.5 3.6 2 5.2 3.6 2.6 2.7 5.7 5.8 12.4 5.8q10.8 0 13.5-10.8-4.1 5.4-9.5 4c-2-0.5-3.5-2-5.1-3.6-2.6-2.7-5.7-5.8-12.4-5.8zm-13.5 16.2q-10.8 0-13.5 10.8 4-5.4 9.4-4.1c2.1 0.6 3.6 2.1 5.2 3.7 2.6 2.7 5.7 5.8 12.4 5.8q10.8 0 13.5-10.8-4.1 5.4-9.5 4c-2-0.5-3.5-2-5.1-3.6-2.6-2.7-5.7-5.8-12.4-5.8z"/>
</svg>